<svg width="36" height="28" viewBox="0 0 36 28" fill="none" xmlns="http://www.w3.org/2000/svg">
<path d="M24.875 7.75H21.75V7.125C21.75 6.62772 21.5525 6.15081 21.2008 5.79917C20.8492 5.44754 20.3723 5.25 19.875 5.25H16.125C15.6277 5.25 15.1508 5.44754 14.7992 5.79917C14.4475 6.15081 14.25 6.62772 14.25 7.125V7.75H11.125C10.9592 7.75 10.8003 7.81585 10.6831 7.93306C10.5658 8.05027 10.5 8.20924 10.5 8.375C10.5 8.54076 10.5658 8.69973 10.6831 8.81694C10.8003 8.93415 10.9592 9 11.125 9H11.75V20.25C11.75 20.5815 11.8817 20.8995 12.1161 21.1339C12.3505 21.3683 12.6685 21.5 13 21.5H23C23.3315 21.5 23.6495 21.3683 23.8839 21.1339C24.1183 20.8995 24.25 20.5815 24.25 20.25V9H24.875C25.0408 9 25.1997 8.93415 25.3169 8.81694C25.4342 8.69973 25.5 8.54076 25.5 8.375C25.5 8.20924 25.4342 8.05027 25.3169 7.93306C25.1997 7.81585 25.0408 7.75 24.875 7.75ZM15.5 7.125C15.5 6.95924 15.5658 6.80027 15.6831 6.68306C15.8003 6.56585 15.9592 6.5 16.125 6.5H19.875C20.0408 6.5 20.1997 6.56585 20.3169 6.68306C20.4342 6.80027 20.5 6.95924 20.5 7.125V7.75H15.5V7.125ZM23 20.25H13V9H23V20.25ZM16.75 12.125V17.125C16.75 17.2908 16.6842 17.4497 16.5669 17.5669C16.4497 17.6842 16.2908 17.75 16.125 17.75C15.9592 17.75 15.8003 17.6842 15.6831 17.5669C15.5658 17.4497 15.5 17.2908 15.5 17.125V12.125C15.5 11.9592 15.5658 11.8003 15.6831 11.6831C15.8003 11.5658 15.9592 11.5 16.125 11.5C16.2908 11.5 16.4497 11.5658 16.5669 11.6831C16.6842 11.8003 16.75 11.9592 16.75 12.125ZM20.5 12.125V17.125C20.5 17.2908 20.4342 17.4497 20.3169 17.5669C20.1997 17.6842 20.0408 17.75 19.875 17.75C19.7092 17.75 19.5503 17.6842 19.4331 17.5669C19.3158 17.4497 19.25 17.2908 19.25 17.125V12.125C19.25 11.9592 19.3158 11.8003 19.4331 11.6831C19.5503 11.5658 19.7092 11.5 19.875 11.5C20.0408 11.5 20.1997 11.5658 20.3169 11.6831C20.4342 11.8003 20.5 11.9592 20.5 12.125Z" fill="#DC3545"/>
</svg>
