<svg width="36" height="28" viewBox="0 0 36 28" fill="none" xmlns="http://www.w3.org/2000/svg">
<path d="M25.7594 9.73184L22.268 6.24122C22.1519 6.12511 22.0141 6.03301 21.8624 5.97018C21.7107 5.90734 21.5482 5.875 21.384 5.875C21.2198 5.875 21.0572 5.90734 20.9056 5.97018C20.7539 6.03301 20.6161 6.12511 20.5 6.24122L10.8664 15.8748C10.7498 15.9905 10.6574 16.1281 10.5945 16.2798C10.5316 16.4315 10.4995 16.5942 10.5 16.7584V20.2498C10.5 20.5813 10.6317 20.8993 10.8661 21.1337C11.1005 21.3681 11.4185 21.4998 11.75 21.4998H24.875C25.0408 21.4998 25.1997 21.434 25.3169 21.3168C25.4342 21.1995 25.5 21.0406 25.5 20.8748C25.5 20.7091 25.4342 20.5501 25.3169 20.4329C25.1997 20.3157 25.0408 20.2498 24.875 20.2498H17.0094L25.7594 11.4998C25.8755 11.3837 25.9676 11.2459 26.0304 11.0942C26.0933 10.9426 26.1256 10.78 26.1256 10.6158C26.1256 10.4517 26.0933 10.2891 26.0304 10.1374C25.9676 9.98573 25.8755 9.84792 25.7594 9.73184ZM15.2414 20.2498H11.75V16.7584L18.625 9.8834L22.1164 13.3748L15.2414 20.2498ZM23 12.4912L19.5094 8.99981L21.3844 7.12481L24.875 10.6162L23 12.4912Z" fill="#2E4258"/>
</svg>
