<svg width="60" height="50" viewBox="0 0 60 50" fill="none" xmlns="http://www.w3.org/2000/svg">
<ellipse cx="30" cy="25" rx="30" ry="25" fill="#F5F7FA"/>
<path d="M27.442 37C25.289 37 23.5358 35.2479 23.5358 33.0938C23.5358 32.6625 23.8858 32.3125 24.317 32.3125C24.7483 32.3125 25.0983 32.6625 25.0983 33.0938C25.0983 34.3866 26.1504 35.4375 27.442 35.4375C28.7337 35.4375 29.7858 34.3866 29.7858 33.0938C29.7858 32.6625 30.1358 32.3125 30.567 32.3125C30.9983 32.3125 31.3483 32.6625 31.3483 33.0938C31.3483 35.2479 29.5952 37 27.442 37Z" fill="#12A1BA"/>
<path d="M36.0357 33.875H18.8482C17.8431 33.875 17.0254 33.0573 17.0254 32.0521C17.0254 31.5187 17.2577 31.0136 17.6628 30.6666C17.689 30.6438 17.717 30.623 17.7462 30.6041C19.2753 29.2697 20.1504 27.35 20.1504 25.3228V22.4166C20.1504 18.3959 23.4223 15.125 27.442 15.125C27.6087 15.125 27.7889 15.1281 27.9556 15.1563C28.3816 15.227 28.6692 15.6303 28.5982 16.0552C28.5275 16.4802 28.117 16.7678 27.6993 16.6968C27.6159 16.6833 27.5244 16.6875 27.442 16.6875C24.2838 16.6875 21.7129 19.2573 21.7129 22.4166V25.3228C21.7129 27.8396 20.6097 30.2209 18.689 31.8551C18.6733 31.8677 18.6598 31.8792 18.643 31.8906C18.615 31.9261 18.5879 31.9802 18.5879 32.0521C18.5879 32.1937 18.7067 32.3125 18.8482 32.3125H36.0357C36.1775 32.3125 36.2963 32.1937 36.2963 32.0521C36.2963 31.9791 36.2692 31.9261 36.24 31.8906C36.2244 31.8792 36.2108 31.8677 36.1952 31.8551C34.2734 30.2198 33.1713 27.8396 33.1713 25.3228V24.1876C33.1713 23.7563 33.5213 23.4063 33.9525 23.4063C34.3838 23.4063 34.7338 23.7563 34.7338 24.1876V25.3228C34.7338 27.3511 35.6098 29.2718 37.1411 30.6073C37.1691 30.626 37.1962 30.6459 37.2212 30.6678C37.6265 31.0136 37.8588 31.5187 37.8588 32.0521C37.8588 33.0573 37.0411 33.875 36.0357 33.875Z" fill="#12A1BA"/>
<path d="M34.7338 22.4166C31.8619 22.4166 29.5254 20.0803 29.5254 17.2084C29.5254 14.3365 31.8619 12 34.7338 12C37.6057 12 39.942 14.3365 39.942 17.2084C39.942 20.0803 37.6057 22.4166 34.7338 22.4166ZM34.7338 13.5625C32.7233 13.5625 31.0879 15.1979 31.0879 17.2084C31.0879 19.2187 32.7233 20.8541 34.7338 20.8541C36.7441 20.8541 38.3795 19.2187 38.3795 17.2084C38.3795 15.1979 36.7441 13.5625 34.7338 13.5625Z" fill="#12A1BA"/>
</svg>
