<svg width="60" height="50" viewBox="0 0 60 50" fill="none" xmlns="http://www.w3.org/2000/svg">
<ellipse cx="30" cy="25" rx="30" ry="25" fill="#F5F7FA"/>
<g clip-path="url(#clip0_12004_2139)">
<path d="M27.2845 37H25.7155C24.4465 37 23.414 35.9676 23.414 34.6986V34.1678C22.8745 33.9954 22.3503 33.7778 21.8468 33.5172L21.4706 33.8934C20.5595 34.8056 19.1001 34.7789 18.2155 33.8931L17.1065 32.7842C16.2204 31.899 16.1949 30.44 17.1068 29.5291L17.4827 29.1532C17.2221 28.6496 17.0046 28.1255 16.8322 27.5859H16.3014C15.0325 27.5859 14 26.5535 14 25.2845V23.7155C14 22.4465 15.0325 21.4141 16.3015 21.4141H16.8322C17.0046 20.8745 17.2222 20.3504 17.4828 19.8468L17.1066 19.4707C16.1952 18.5603 16.2203 17.1012 17.1069 16.2156L18.2159 15.1066C19.1026 14.2187 20.5617 14.1965 21.471 15.1069L21.8468 15.4827C22.3504 15.2222 22.8746 15.0046 23.4141 14.8322V14.3014C23.4141 13.0324 24.4465 12 25.7155 12H27.2845C28.5535 12 29.5859 13.0324 29.5859 14.3014V14.8322C30.1254 15.0046 30.6496 15.2222 31.1532 15.4828L31.5293 15.1066C32.4404 14.1944 33.8999 14.2211 34.7845 15.1069L35.8934 16.2158C36.7796 17.101 36.8051 18.56 35.8931 19.4709L35.5172 19.8468C35.7778 20.3504 35.9954 20.8745 36.1678 21.4141H36.6985C37.9675 21.4141 39 22.4465 39 23.7155V25.2845C39 26.5535 37.9675 27.5859 36.6985 27.5859H36.1678C35.9954 28.1255 35.7778 28.6496 35.5172 29.1532L35.8934 29.5293C36.8048 30.4398 36.7797 31.8989 35.8931 32.7845L34.7841 33.8935C33.8974 34.7813 32.4383 34.8035 31.529 33.8932L31.1532 33.5173C30.6496 33.7779 30.1254 33.9955 29.5859 34.1679V34.6987C29.5859 35.9676 28.5535 37 27.2845 37ZM22.0917 31.979C22.7912 32.3927 23.5441 32.7053 24.3295 32.908C24.6529 32.9914 24.8789 33.2831 24.8789 33.6171V34.6986C24.8789 35.1599 25.2542 35.5352 25.7155 35.5352H27.2845C27.7458 35.5352 28.1211 35.1599 28.1211 34.6986V33.6171C28.1211 33.2831 28.3471 32.9914 28.6706 32.908C29.4559 32.7053 30.2088 32.3927 30.9084 31.979C31.1962 31.8088 31.5627 31.8551 31.7992 32.0916L32.5652 32.8576C32.8955 33.1883 33.4258 33.1806 33.748 32.858L34.8577 31.7483C35.1791 31.4273 35.1898 30.8968 34.858 30.5654L34.0917 29.7991C33.8552 29.5626 33.8089 29.1961 33.9791 28.9083C34.3928 28.2088 34.7053 27.4559 34.908 26.6705C34.9915 26.3471 35.2832 26.1211 35.6172 26.1211H36.6986C37.1599 26.1211 37.5352 25.7458 37.5352 25.2846V23.7155C37.5352 23.2542 37.1599 22.879 36.6986 22.879H35.6172C35.2832 22.879 34.9915 22.653 34.908 22.3296C34.7053 21.5442 34.3928 20.7913 33.9791 20.0917C33.8089 19.804 33.8552 19.4375 34.0917 19.201L34.8577 18.435C35.1889 18.1042 35.1802 17.5739 34.858 17.2521L33.7484 16.1425C33.4268 15.8204 32.8963 15.811 32.5655 16.1422L31.7992 16.9085C31.5628 17.145 31.1962 17.1913 30.9084 17.0211C30.2089 16.6074 29.456 16.2948 28.6706 16.0921C28.3472 16.0087 28.1212 15.717 28.1212 15.383V14.3014C28.1212 13.8401 27.7458 13.4648 27.2846 13.4648H25.7156C25.2543 13.4648 24.879 13.8401 24.879 14.3014V15.3829C24.879 15.7169 24.653 16.0086 24.3295 16.092C23.5442 16.2947 22.7913 16.6073 22.0917 17.021C21.8038 17.1912 21.4374 17.1449 21.2009 16.9084L20.4349 16.1424C20.1046 15.8117 19.5742 15.8194 19.2521 16.142L18.1424 17.2517C17.821 17.5727 17.8103 18.1031 18.1421 18.4346L18.9084 19.2009C19.1449 19.4374 19.1912 19.8039 19.021 20.0917C18.6073 20.7912 18.2948 21.5441 18.0921 22.3295C18.0086 22.6529 17.7169 22.8789 17.3829 22.8789H16.3015C15.8402 22.8789 15.4648 23.2542 15.4648 23.7155V25.2845C15.4648 25.7458 15.8402 26.1211 16.3015 26.1211H17.3829C17.7169 26.1211 18.0085 26.3471 18.092 26.6705C18.2947 27.4559 18.6073 28.2088 19.0209 28.9083C19.1911 29.1961 19.1448 29.5626 18.9084 29.799L18.1423 30.5651C17.8112 30.8959 17.8198 31.4261 18.142 31.7479L19.2517 32.8576C19.5733 33.1796 20.1038 33.1891 20.4345 32.8579L21.2008 32.0915C21.375 31.9173 21.7375 31.7695 22.0917 31.979Z" fill="#718EBF"/>
<path d="M26.5 29.9395C23.5006 29.9395 21.0605 27.4993 21.0605 24.5C21.0605 21.5007 23.5006 19.0605 26.5 19.0605C29.4994 19.0605 31.9395 21.5007 31.9395 24.5C31.9395 27.4993 29.4994 29.9395 26.5 29.9395ZM26.5 20.5254C24.3084 20.5254 22.5254 22.3084 22.5254 24.5C22.5254 26.6916 24.3084 28.4746 26.5 28.4746C28.6916 28.4746 30.4746 26.6916 30.4746 24.5C30.4746 22.3084 28.6917 20.5254 26.5 20.5254Z" fill="#718EBF"/>
</g>
<defs>
<clipPath id="clip0_12004_2139">
<rect width="25" height="25" fill="white" transform="translate(14 12)"/>
</clipPath>
</defs>
</svg>
