<svg width="26" height="25" viewBox="0 0 26 25" fill="none" xmlns="http://www.w3.org/2000/svg">
<g clip-path="url(#clip0_8295_353)">
<path d="M23.2347 9.41406H22.6914C22.5149 8.87451 22.2923 8.35039 22.0255 7.84683L22.4103 7.47095C23.3432 6.56055 23.3182 5.10156 22.4106 4.21582L21.2754 3.10693C20.3693 2.22056 18.8756 2.19487 17.9434 3.10659L17.5584 3.48276C17.0429 3.22222 16.5064 3.00464 15.9541 2.83223V2.30142C15.9541 1.03242 14.8973 0 13.5983 0H11.9922C10.6932 0 9.63644 1.03242 9.63644 2.30142V2.83223C9.0842 3.00459 8.54764 3.22217 8.03218 3.48276L7.64748 3.10693C6.71717 2.19702 5.22347 2.21836 4.31551 3.10664L3.18028 4.21558C2.27301 5.10093 2.24677 6.56001 3.17998 7.4707L3.56503 7.84687C3.29828 8.35044 3.07561 8.87451 2.89913 9.41411H2.35583C1.05686 9.41406 0 10.4465 0 11.7155V13.2845C0 14.5535 1.05686 15.5859 2.35583 15.5859H2.89913C3.07561 16.1255 3.29828 16.6496 3.56503 17.1532L3.18028 17.5291C2.24737 18.4395 2.27236 19.8984 3.17998 20.7842L4.31511 21.8931C5.22122 22.7794 6.71497 22.8051 7.64713 21.8934L8.03218 21.5172C8.54764 21.7778 9.0842 21.9954 9.63644 22.1678V22.6986C9.63644 23.9676 10.6933 25 11.9923 25H13.5983C14.8973 25 15.9542 23.9676 15.9542 22.6986V22.1678C16.5064 21.9954 17.043 21.7778 17.5584 21.5172L17.9431 21.8931C18.8734 22.803 20.3671 22.7816 21.2751 21.8934L22.4103 20.7844C23.3176 19.899 23.3438 18.4399 22.4106 17.5292L22.0256 17.1531C22.2923 16.6495 22.515 16.1254 22.6915 15.5858H23.2348C24.5337 15.5858 25.5906 14.5534 25.5906 13.2844V11.7154C25.5905 10.4465 24.5337 9.41406 23.2347 9.41406ZM12.7953 17.9395C9.72506 17.9395 7.22733 15.4993 7.22733 12.5C7.22733 9.50068 9.72506 7.06055 12.7953 7.06055C15.8655 7.06055 18.3632 9.50068 18.3632 12.5C18.3632 15.4993 15.8655 17.9395 12.7953 17.9395Z" fill="#B1B1B1"/>
</g>
<defs>
<clipPath id="clip0_8295_353">
<rect width="25.5905" height="25" fill="white"/>
</clipPath>
</defs>
</svg>
