<svg width="26" height="26" viewBox="0 0 26 26" fill="none" xmlns="http://www.w3.org/2000/svg">
<path d="M18.4167 11.7058C18.4167 11.331 18.4167 11.1436 18.473 10.9767C18.6366 10.4914 19.0689 10.304 19.5022 10.1068C19.9875 9.88473 20.2302 9.77423 20.4718 9.75473C20.7448 9.73306 21.0189 9.79156 21.2529 9.92265C21.5627 10.096 21.7794 10.4275 22.0004 10.6961C23.0219 11.9376 23.5333 12.5584 23.7196 13.242C23.8713 13.7945 23.8713 14.373 23.7196 14.9244C23.4477 15.9232 22.5864 16.7596 21.9484 17.5352C21.6223 17.9306 21.4587 18.1289 21.2529 18.2448C21.0148 18.3768 20.743 18.4352 20.4718 18.4127C20.2302 18.3932 19.9875 18.2827 19.5011 18.0606C19.0678 17.8635 18.6366 17.6761 18.473 17.1907C18.4167 17.0239 18.4167 16.8365 18.4167 16.4616V11.7058ZM7.58336 11.7058C7.58336 11.2335 7.57036 10.8099 7.18902 10.4784C7.05036 10.3581 6.86619 10.2747 6.49894 10.1068C6.01252 9.88581 5.76986 9.77423 5.52827 9.75473C4.80569 9.69623 4.41677 10.1902 4.00077 10.6972C2.97811 11.9376 2.46677 12.5584 2.27936 13.2431C2.12856 13.7937 2.12856 14.3748 2.27936 14.9255C2.55236 15.9232 3.41469 16.7606 4.05169 17.5352C4.45361 18.0227 4.83819 18.468 5.52827 18.4127C5.76986 18.3932 6.01252 18.2827 6.49894 18.0606C6.86727 17.8938 7.05036 17.8093 7.18902 17.6891C7.57036 17.3576 7.58336 16.934 7.58336 16.4627V11.7058Z" stroke="#B1B1B1" stroke-width="2" stroke-linecap="round" stroke-linejoin="round"/>
<path d="M5.41675 9.75C5.41675 6.15983 8.81191 3.25 13.0001 3.25C17.1882 3.25 20.5834 6.15983 20.5834 9.75M20.5834 18.4167V19.2833C20.5834 21.1976 18.6442 22.75 16.2501 22.75H14.0834" stroke="#B1B1B1" stroke-width="2" stroke-linecap="round" stroke-linejoin="round"/>
</svg>
