<svg width="26" height="25" viewBox="0 0 26 25" fill="none" xmlns="http://www.w3.org/2000/svg">
<g clip-path="url(#clip0_8304_3108)">
<path d="M11.1005 9.93099C13.4017 9.93099 15.2672 8.06551 15.2672 5.76432C15.2672 3.46314 13.4017 1.59766 11.1005 1.59766C8.79932 1.59766 6.93384 3.46314 6.93384 5.76432C6.93384 8.06551 8.79932 9.93099 11.1005 9.93099Z" fill="#B1B1B1"/>
<path d="M12.3298 22.0975C12.1003 21.8705 11.9505 21.5753 11.903 21.256C11.8554 20.9368 11.9125 20.6107 12.0659 20.3267L12.4339 19.6322L11.677 19.4031C11.3683 19.3065 11.0996 19.1118 10.9116 18.8486C10.7236 18.5854 10.6266 18.2681 10.6353 17.9447V16.5211C10.6348 16.1992 10.7377 15.8857 10.9291 15.6268C11.1204 15.3679 11.3899 15.1775 11.6978 15.0836L12.4548 14.8545L12.0937 14.16C11.9448 13.8799 11.8882 13.5599 11.9318 13.2457C11.9755 12.9314 12.1172 12.639 12.3367 12.41C11.8025 12.3401 11.2644 12.303 10.7256 12.2989C9.13417 12.2614 7.55407 12.5756 6.098 13.219C4.64194 13.8624 3.34579 14.8192 2.302 16.0211V21.4031C2.302 21.5872 2.37517 21.7639 2.5054 21.8941C2.63563 22.0243 2.81227 22.0975 2.99645 22.0975H12.3298Z" fill="#B1B1B1"/>
<path d="M24.3157 16.2915L22.9269 15.8748C22.8308 15.5318 22.6956 15.2009 22.5241 14.8887L23.2185 13.597C23.2454 13.5491 23.2552 13.4935 23.2463 13.4392C23.2375 13.385 23.2106 13.3354 23.1699 13.2984L22.163 12.2845C22.1242 12.2468 22.0747 12.2219 22.0213 12.2132C21.9679 12.2045 21.9131 12.2124 21.8644 12.2359L20.5796 12.9303C20.2635 12.7584 19.9308 12.6188 19.5866 12.5137L19.163 11.1248C19.1443 11.0736 19.1103 11.0294 19.0655 10.9983C19.0208 10.9672 18.9675 10.9508 18.913 10.9512H17.4685C17.4144 10.9527 17.362 10.9708 17.3185 11.0031C17.275 11.0354 17.2426 11.0803 17.2255 11.1317L16.8088 12.5206C16.4583 12.6235 16.1205 12.7656 15.8019 12.9442L14.5449 12.2498C14.496 12.2238 14.4402 12.2139 14.3854 12.2213C14.3306 12.2288 14.2795 12.2534 14.2394 12.2915L13.2185 13.2915C13.1783 13.3302 13.1518 13.381 13.1431 13.4361C13.1343 13.4912 13.1437 13.5477 13.1699 13.597L13.8644 14.8609C13.6781 15.1745 13.5268 15.5075 13.413 15.854L12.0241 16.2776C11.9715 16.2928 11.9254 16.3248 11.8928 16.3687C11.8602 16.4126 11.8429 16.4659 11.8435 16.5206V17.9442C11.8429 17.9989 11.8602 18.0523 11.8928 18.0962C11.9254 18.1401 11.9715 18.1721 12.0241 18.1873L13.413 18.6109C13.5171 18.951 13.6568 19.2792 13.8296 19.5901L13.1352 20.9095C13.109 20.9588 13.0996 21.0153 13.1083 21.0704C13.1171 21.1256 13.1436 21.1763 13.1838 21.2151L14.2185 22.222C14.2587 22.2601 14.3097 22.2846 14.3646 22.2921C14.4194 22.2996 14.4752 22.2897 14.5241 22.2637L15.8227 21.5692C16.1315 21.7359 16.4575 21.8686 16.7949 21.9651L17.2116 23.3887C17.2291 23.4412 17.2626 23.4869 17.3075 23.5193C17.3523 23.5517 17.4062 23.5692 17.4616 23.5692H18.8852C18.9393 23.5677 18.9917 23.5496 19.0352 23.5173C19.0787 23.485 19.1112 23.4401 19.1282 23.3887L19.5449 21.9651C19.8781 21.8692 20.1995 21.7365 20.5032 21.5692L21.8157 22.2637C21.8646 22.2897 21.9204 22.2996 21.9752 22.2921C22.0301 22.2846 22.0812 22.2601 22.1213 22.222L23.1352 21.2151C23.1733 21.1749 23.1978 21.1238 23.2053 21.069C23.2128 21.0142 23.2028 20.9584 23.1769 20.9095L22.4824 19.604C22.6481 19.2995 22.7808 18.9783 22.8782 18.6456L24.2671 18.222C24.3193 18.2052 24.3652 18.173 24.3986 18.1296C24.4321 18.0862 24.4516 18.0337 24.4546 17.979V16.5415C24.4563 16.4911 24.4443 16.4412 24.4198 16.3972C24.3954 16.3532 24.3594 16.3166 24.3157 16.2915ZM18.1838 19.5692C17.7248 19.5706 17.2756 19.4357 16.8933 19.1817C16.511 18.9277 16.2126 18.5659 16.036 18.1422C15.8594 17.7185 15.8124 17.2519 15.9011 16.8016C15.9898 16.3512 16.2102 15.9372 16.5343 15.6122C16.8584 15.2871 17.2717 15.0655 17.7218 14.9754C18.1719 14.8854 18.6386 14.9309 19.0629 15.1062C19.4871 15.2816 19.8497 15.5789 20.1049 15.9605C20.3601 16.342 20.4963 16.7908 20.4963 17.2498C20.4963 17.8637 20.2529 18.4527 19.8194 18.8874C19.3859 19.3222 18.7978 19.5674 18.1838 19.5692Z" fill="#B1B1B1"/>
</g>
<defs>
<clipPath id="clip0_8304_3108">
<rect width="25.5905" height="25" fill="white"/>
</clipPath>
</defs>
</svg>
