<svg width="26" height="25" viewBox="0 0 26 25" fill="none" xmlns="http://www.w3.org/2000/svg">
<g clip-path="url(#clip0_8295_366)">
<path d="M8.8125 9.59375H18.1875M8.8125 12.7188H13.5M3.34375 14.2917C3.34375 15.9583 4.51354 17.4104 6.16354 17.6531C7.33958 17.826 8.52812 17.9583 9.72917 18.0479C10.0937 18.075 10.4271 18.2667 10.6302 18.5698L13.5 22.875L16.3698 18.5698C16.4705 18.4201 16.6039 18.2953 16.7601 18.2048C16.9162 18.1144 17.0909 18.0607 17.2708 18.0479C18.4637 17.9589 19.653 17.8272 20.8365 17.6531C22.4865 17.4104 23.6562 15.9594 23.6562 14.2906V8.02188C23.6562 6.35313 22.4865 4.90209 20.8365 4.65938C18.4072 4.30283 15.9552 4.12423 13.5 4.125C11.0083 4.125 8.55833 4.30729 6.16354 4.65938C4.51354 4.90209 3.34375 6.35417 3.34375 8.02188V14.2906V14.2917Z" stroke="#B1B1B1" stroke-width="1.5" stroke-linecap="round" stroke-linejoin="round"/>
</g>
<defs>
<clipPath id="clip0_8295_366">
<rect width="25.5905" height="25" fill="white"/>
</clipPath>
</defs>
</svg>
