<svg width="26" height="25" viewBox="0 0 26 25" fill="none" xmlns="http://www.w3.org/2000/svg">
<g clip-path="url(#clip0_8304_3116)">
<path d="M24.9001 10.8738C24.8995 10.8732 24.8989 10.8727 24.8983 10.8721L14.4594 0.674438C14.0145 0.239563 13.4229 0 12.7936 0C12.1644 0 11.5728 0.239372 11.1277 0.674248L0.694203 10.8667C0.690689 10.8702 0.687175 10.8738 0.68366 10.8772C-0.230065 11.775 -0.228503 13.2317 0.688151 14.1272C1.10694 14.5365 1.66006 14.7736 2.25144 14.7984C2.27546 14.8006 2.29967 14.8018 2.32407 14.8018H2.74013V22.3066C2.74013 23.7917 3.97698 25 5.49751 25H9.58155C9.99546 25 10.3313 24.6721 10.3313 24.2676V18.3838C10.3313 17.7061 10.8955 17.1549 11.5892 17.1549H13.9981C14.6918 17.1549 15.256 17.7061 15.256 18.3838V24.2676C15.256 24.6721 15.5916 25 16.0057 25H20.0898C21.6103 25 22.8472 23.7917 22.8472 22.3066V14.8018H23.233C23.862 14.8018 24.4536 14.5624 24.8989 14.1275C25.8166 13.2305 25.817 11.7714 24.9001 10.8738Z" fill="#B1B1B1"/>
</g>
<defs>
<clipPath id="clip0_8304_3116">
<rect width="25.5905" height="25" fill="white"/>
</clipPath>
</defs>
</svg>
