<svg width="26" height="25" viewBox="0 0 26 25" fill="none" xmlns="http://www.w3.org/2000/svg">
<g clip-path="url(#clip0_8295_334)">
<path d="M25.3708 1.25045L24.3106 0.214663C24.0896 -0.00135204 23.7546 -0.0605316 23.4704 0.0654447L17.7757 2.52135C17.5516 2.62096 17.3921 2.8213 17.3481 3.05743C17.3045 3.2942 17.3817 3.53638 17.5557 3.70636L21.7967 7.84946C21.9707 8.01943 22.2186 8.09477 22.4609 8.05224C22.7026 8.00933 22.9077 7.85351 23.0097 7.63452L25.5235 2.07125C25.6525 1.79357 25.5919 1.46637 25.3708 1.25045Z" fill="#B1B1B1"/>
<path d="M4.84321 16.125L0.657768 20.2139C-0.219256 21.0706 -0.219256 22.4644 0.657768 23.3212L1.71797 24.3569C2.595 25.2137 4.02172 25.2137 4.89869 24.3569L9.08414 20.2681L4.84321 16.125ZM4.37594 21.7706C4.0829 22.0569 3.60862 22.0569 3.31563 21.7706C3.02269 21.4843 3.02269 21.021 3.31563 20.7349L5.38062 18.7175C5.67366 18.4312 6.14788 18.4312 6.44082 18.7175C6.73386 19.0038 6.73386 19.467 6.44082 19.7533L4.37594 21.7706Z" fill="#B1B1B1"/>
<path d="M12.2649 17.1612L8.02395 13.0181C7.43942 12.4471 6.48797 12.4471 5.90349 13.0181C5.31895 13.5892 5.31895 14.5187 5.90349 15.0897L10.1445 19.2328C10.7289 19.8038 11.6804 19.8038 12.2649 19.2328C12.8495 18.6619 12.8495 17.7323 12.2649 17.1612Z" fill="#B1B1B1"/>
<path d="M19.6763 7.84892L17.5558 5.77734L11.7348 11.464C11.1493 10.8919 10.2 10.8919 9.61438 11.464L9.08423 11.9819L13.3252 16.125L13.8554 15.6071C14.4409 15.0349 14.4409 14.1076 13.8554 13.5355L19.6763 7.84892Z" fill="#B1B1B1"/>
<path d="M24.2749 17.4975C23.0578 16.3085 21.5943 16.0529 19.915 16.346L16.5065 13.0166L15.6926 13.8118C15.9606 14.7956 15.7 15.8758 14.915 16.6427L14.386 17.1596L16.7317 19.4509C16.4952 20.7439 16.5173 21.8405 17.3393 23.03C18.2879 24.4031 19.948 25.1835 21.6873 24.9496C21.9748 24.911 22.215 24.7162 22.3074 24.4474C22.3998 24.1787 22.3285 23.882 22.1234 23.6814L21.0923 22.6759V20.6046H23.2148L24.2401 21.6063C24.4457 21.8072 24.7503 21.8763 25.0256 21.7853C25.301 21.6943 25.4998 21.4586 25.5384 21.1771C25.7215 19.8449 25.2754 18.4745 24.2749 17.4975Z" fill="#B1B1B1"/>
<path d="M8.84854 5.53236C9.14608 3.90898 8.90517 2.48085 7.66983 1.27314C6.82929 0.45205 5.70471 0 4.50325 0C4.30098 0 4.10085 0.0128906 3.90333 0.0384277C3.61488 0.0758299 3.37342 0.270263 3.28016 0.53955C3.18689 0.808739 3.25812 1.10639 3.46384 1.30737L4.49926 2.30883V4.39447H2.3684L1.34068 3.37641C1.1354 3.17587 0.831367 3.10649 0.556169 3.19697C0.281071 3.28745 0.0820948 3.52231 0.0425595 3.80331C-0.185856 5.42816 0.534827 7.07889 2.00523 8.04862C3.22738 8.85301 4.35666 8.87293 5.67027 8.64159L8.02545 10.9462L8.5547 10.4291C9.33971 9.66224 10.4453 9.40779 11.4525 9.66951L12.2661 8.87469L8.84854 5.53236Z" fill="#B1B1B1"/>
</g>
<defs>
<clipPath id="clip0_8295_334">
<rect width="25.5905" height="25" fill="white"/>
</clipPath>
</defs>
</svg>
