<svg width="26" height="25" viewBox="0 0 26 25" fill="none" xmlns="http://www.w3.org/2000/svg">
<g clip-path="url(#clip0_8304_3103)">
<path d="M12.613 12.0426C14.3065 12.0426 15.7729 11.4492 16.9711 10.2785C18.1693 9.10793 18.7767 7.67571 18.7767 6.02109C18.7767 4.36705 18.1693 2.93463 16.9709 1.76372C15.7725 0.593374 14.3063 0 12.613 0C10.9192 0 9.45319 0.593374 8.255 1.76391C7.05681 2.93444 6.44922 4.36686 6.44922 6.02109C6.44922 7.67571 7.05681 9.10813 8.25519 10.2787C9.45358 11.449 10.9198 12.0426 12.613 12.0426Z" fill="#B1B1B1"/>
<path d="M23.3977 19.2239C23.3631 18.7368 23.2933 18.2054 23.1904 17.6443C23.0865 17.0789 22.9528 16.5445 22.7927 16.056C22.6273 15.5512 22.4024 15.0526 22.1243 14.5748C21.8358 14.0789 21.4968 13.6471 21.1165 13.2917C20.7188 12.92 20.2319 12.6211 19.6688 12.4031C19.1077 12.1862 18.4858 12.0764 17.8207 12.0764C17.5594 12.0764 17.3068 12.1811 16.8189 12.4914C16.5186 12.6827 16.1674 12.904 15.7753 13.1487C15.4401 13.3573 14.986 13.5528 14.425 13.7298C13.8778 13.9028 13.3221 13.9906 12.7737 13.9906C12.2253 13.9906 11.6698 13.9028 11.122 13.7298C10.5616 13.553 10.1075 13.3575 9.77266 13.1489C9.38432 12.9064 9.03289 12.6852 8.72812 12.4912C8.2408 12.1809 7.98796 12.0762 7.72673 12.0762C7.06135 12.0762 6.43971 12.1862 5.87878 12.4033C5.3161 12.6209 4.82897 12.9198 4.43088 13.2919C4.05074 13.6474 3.71161 14.0791 3.42344 14.5748C3.14561 15.0526 2.92069 15.551 2.75513 16.0562C2.59523 16.5447 2.46149 17.0789 2.35762 17.6443C2.25473 18.2046 2.18483 18.7362 2.15027 19.2245C2.1163 19.7029 2.09912 20.1993 2.09912 20.7008C2.09912 22.0058 2.52377 23.0623 3.36116 23.8414C4.18819 24.6103 5.28252 25.0003 6.61328 25.0003H18.9353C20.266 25.0003 21.36 24.6105 22.1872 23.8414C23.0248 23.0628 23.4494 22.0062 23.4494 20.7006C23.4492 20.1969 23.4319 19.7 23.3977 19.2239Z" fill="#B1B1B1"/>
</g>
<defs>
<clipPath id="clip0_8304_3103">
<rect width="25.5905" height="25" fill="white"/>
</clipPath>
</defs>
</svg>
