<svg width="21" height="20" viewBox="0 0 21 20" fill="none" xmlns="http://www.w3.org/2000/svg">
<path d="M18.3811 9.58366V12.917C18.3811 15.8337 16.7101 17.0837 14.2036 17.0837H5.84854C3.34203 17.0837 1.67102 15.8337 1.67102 12.917V7.08366C1.67102 4.16699 3.34203 2.91699 5.84854 2.91699H10.0261" stroke="#84818A" stroke-width="1.5" stroke-miterlimit="10" stroke-linecap="round" stroke-linejoin="round"/>
<path d="M5.84851 7.5L8.46364 9.58333C9.32421 10.2667 10.7362 10.2667 11.5968 9.58333" stroke="#84818A" stroke-width="1.5" stroke-miterlimit="10" stroke-linecap="round" stroke-linejoin="round"/>
<path d="M16.2756 2.3502L16.5096 2.82519C16.6265 3.05852 16.919 3.27519 17.178 3.32519L17.4955 3.37519C18.4479 3.53353 18.6735 4.23353 17.9884 4.92519L17.696 5.21685C17.5038 5.41685 17.3952 5.80019 17.4537 6.06685L17.4955 6.24186C17.7545 7.39186 17.1446 7.83352 16.142 7.23352L15.9247 7.10852C15.6657 6.95852 15.248 6.95852 14.989 7.10852L14.7717 7.23352C13.7608 7.84185 13.1508 7.39186 13.4182 6.24186L13.46 6.06685C13.5185 5.80019 13.4099 5.41685 13.2177 5.21685L12.9253 4.92519C12.2401 4.23353 12.4657 3.53353 13.4182 3.37519L13.7357 3.32519C13.9864 3.28353 14.2871 3.05852 14.4041 2.82519L14.638 2.3502C15.0892 1.44186 15.8245 1.44186 16.2756 2.3502Z" stroke="#84818A" stroke-width="1.5" stroke-linecap="round" stroke-linejoin="round"/>
</svg>
