<svg width="21" height="20" viewBox="0 0 21 20" fill="none" xmlns="http://www.w3.org/2000/svg">
<path d="M18.3811 8.75033V12.917C18.3811 15.8337 16.7101 17.0837 14.2036 17.0837H5.84854C3.34203 17.0837 1.67102 15.8337 1.67102 12.917V7.08366C1.67102 4.16699 3.34203 2.91699 5.84854 2.91699H11.6971" stroke="#84818A" stroke-width="1.5" stroke-miterlimit="10" stroke-linecap="round" stroke-linejoin="round"/>
<path d="M5.84851 7.5L8.46364 9.58333C9.32421 10.2667 10.7362 10.2667 11.5968 9.58333L12.5827 8.8" stroke="#84818A" stroke-width="1.5" stroke-miterlimit="10" stroke-linecap="round" stroke-linejoin="round"/>
<path d="M16.2923 6.66667C17.4459 6.66667 18.3811 5.73393 18.3811 4.58333C18.3811 3.43274 17.4459 2.5 16.2923 2.5C15.1387 2.5 14.2036 3.43274 14.2036 4.58333C14.2036 5.73393 15.1387 6.66667 16.2923 6.66667Z" stroke="#84818A" stroke-width="1.5" stroke-miterlimit="10" stroke-linecap="round" stroke-linejoin="round"/>
</svg>
